<svg width="48" height="48" viewBox="0 0 48 48" fill="none" xmlns="http://www.w3.org/2000/svg">
<rect width="48" height="48" rx="24" fill="white"/>
<path d="M31.3802 14.4069C30.9242 14.3709 30.4442 14.4789 30.0002 14.7189L19.6202 20.7189C18.4682 21.3909 18.0842 22.8789 18.7442 24.0069L20.5442 27.1149C21.2042 28.2789 22.6682 28.6629 23.8202 28.0029L25.9802 26.7549C26.3042 27.3069 26.7842 27.7509 27.3722 28.0029V30.1269C27.3722 31.4349 28.4402 32.4789 29.7722 32.4789H36.0002V30.1269H29.7722V28.0029C30.8642 27.5229 31.5722 26.4429 31.5722 25.2789C31.5722 24.7269 31.4282 24.2109 31.1642 23.7549L34.2002 22.0029C35.3642 21.3309 35.7602 19.8789 35.0882 18.7149L33.2882 15.6069C32.8802 14.8869 32.1482 14.4789 31.3802 14.4069ZM17.0642 24.2829L12.0002 25.1229L12.9002 26.6829L15.3002 30.8349L16.2002 32.3949L19.4642 28.4349L17.0642 24.2829Z" fill="#367BF5"/>
</svg>
