<svg width="48" height="48" viewBox="0 0 48 48" fill="none" xmlns="http://www.w3.org/2000/svg">
<rect width="48" height="48" rx="24" fill="#E6EFFF"/>
<path d="M29.4002 27.6003H36.0002V29.4003H29.4002V31.5003L26.4002 28.5003L29.4002 25.5003V27.6003ZM33.0002 32.7003V30.6003L36.0002 33.6003L33.0002 36.6003V34.5003H26.4002V32.7003H33.0002ZM21.0002 15.6003C20.3637 15.6003 19.7533 15.3474 19.3032 14.8973C18.8531 14.4473 18.6002 13.8368 18.6002 13.2003C18.6002 12.5638 18.8531 11.9533 19.3032 11.5032C19.7533 11.0531 20.3637 10.8003 21.0002 10.8003C21.6368 10.8003 22.2472 11.0531 22.6973 11.5032C23.1474 11.9533 23.4002 12.5638 23.4002 13.2003C23.4002 13.8368 23.1474 14.4473 22.6973 14.8973C22.2472 15.3474 21.6368 15.6003 21.0002 15.6003ZM16.5002 19.6803L14.4002 20.5803V24.6003H12.0002V18.9603L18.3002 16.3803C18.6002 16.2603 18.9002 16.2003 19.2002 16.2003C20.0402 16.2003 20.8202 16.6203 21.2402 17.3403L22.3802 19.2603C23.4602 21.0003 25.3802 22.2003 27.6002 22.2003V24.6003C24.9602 24.6003 22.6202 23.4003 21.0602 21.4803L20.3402 25.0803L22.8002 27.5403V36.6003H20.4002V29.4003L17.8202 27.0003L15.7202 36.6003H13.2002L16.5002 19.6803Z" fill="#367BF5"/>
</svg>
