<svg width="48" height="48" viewBox="0 0 48 48" fill="none" xmlns="http://www.w3.org/2000/svg">
<rect width="48" height="48" rx="24" fill="#E6EFFF"/>
<path d="M24.0002 21.2202C24.5307 21.2202 25.0394 21.431 25.4145 21.806C25.7895 22.1811 26.0002 22.6898 26.0002 23.2202C26.0002 23.7507 25.7895 24.2594 25.4145 24.6345C25.0394 25.0095 24.5307 25.2202 24.0002 25.2202C23.4698 25.2202 22.9611 25.0095 22.586 24.6345C22.211 24.2594 22.0002 23.7507 22.0002 23.2202C22.0002 22.6898 22.211 22.1811 22.586 21.806C22.9611 21.431 23.4698 21.2202 24.0002 21.2202ZM24.0002 33.2202C22.0502 33.2202 20.2202 32.6602 18.6902 31.6902L22.0002 26.6902C22.6002 27.0302 23.2802 27.2202 24.0002 27.2202C24.7202 27.2202 25.4002 27.0302 26.0002 26.6902L29.3102 31.6902C27.7802 32.6602 25.9502 33.2202 24.0002 33.2202ZM14.0002 23.2202C14.0002 19.0802 16.5002 15.5202 20.1102 14.0002L22.3402 19.5802C20.9602 20.2202 20.0002 21.6002 20.0002 23.2202H14.0002ZM28.0002 23.2202C28.0002 21.6002 27.0402 20.2202 25.6602 19.5802L27.8902 14.0002C31.5002 15.5202 34.0002 19.0802 34.0002 23.2202H28.0002Z" fill="#367BF5"/>
</svg>
